<mxfile host="app.diagrams.net" modified="2023-06-05T06:17:08.573Z" agent="Mozilla/5.0 (Macintosh; Intel Mac OS X 10_15_7) AppleWebKit/537.36 (KHTML, like Gecko) Chrome/113.0.0.0 Safari/537.36" etag="ZsDd8mu3WBXSce8e_vw4" version="21.3.7" type="github">
  <diagram name="第 1 页" id="3vXRW3onhMDnrju-a3GT">
    <mxGraphModel dx="1434" dy="674" grid="1" gridSize="10" guides="1" tooltips="1" connect="1" arrows="1" fold="1" page="1" pageScale="1" pageWidth="827" pageHeight="1169" math="0" shadow="0">
      <root>
        <mxCell id="0" />
        <mxCell id="1" parent="0" />
        <mxCell id="0efaH-HFPYKLyXuHY3B8-3" value="" style="rounded=0;whiteSpace=wrap;html=1;dashed=1;" vertex="1" parent="1">
          <mxGeometry x="40" y="170" width="630" height="453" as="geometry" />
        </mxCell>
        <mxCell id="7Lpbf4hjDQmTumKoWNzC-1" value="recall主流程" style="rounded=0;whiteSpace=wrap;html=1;" parent="1" vertex="1">
          <mxGeometry x="370" y="290" width="180" height="70" as="geometry" />
        </mxCell>
        <mxCell id="7Lpbf4hjDQmTumKoWNzC-2" value="request" style="rounded=1;whiteSpace=wrap;html=1;" parent="1" vertex="1">
          <mxGeometry x="414" y="100" width="90" height="40" as="geometry" />
        </mxCell>
        <mxCell id="7Lpbf4hjDQmTumKoWNzC-3" value="" style="endArrow=classic;html=1;rounded=0;exitX=0.5;exitY=1;exitDx=0;exitDy=0;entryX=0.5;entryY=0;entryDx=0;entryDy=0;" parent="1" source="7Lpbf4hjDQmTumKoWNzC-2" target="7Lpbf4hjDQmTumKoWNzC-1" edge="1">
          <mxGeometry width="50" height="50" relative="1" as="geometry">
            <mxPoint x="530" y="240" as="sourcePoint" />
            <mxPoint x="580" y="190" as="targetPoint" />
          </mxGeometry>
        </mxCell>
        <mxCell id="7Lpbf4hjDQmTumKoWNzC-5" style="edgeStyle=orthogonalEdgeStyle;rounded=0;orthogonalLoop=1;jettySize=auto;html=1;exitX=0.5;exitY=1;exitDx=0;exitDy=0;" parent="1" source="7Lpbf4hjDQmTumKoWNzC-1" target="7Lpbf4hjDQmTumKoWNzC-1" edge="1">
          <mxGeometry relative="1" as="geometry" />
        </mxCell>
        <mxCell id="7Lpbf4hjDQmTumKoWNzC-6" value="recall主流程" style="rounded=0;whiteSpace=wrap;html=1;" parent="1" vertex="1">
          <mxGeometry x="370" y="510" width="180" height="70" as="geometry" />
        </mxCell>
        <mxCell id="7Lpbf4hjDQmTumKoWNzC-7" value="修改召回效果&lt;br&gt;（修改召回倍数）" style="rounded=0;whiteSpace=wrap;html=1;fillColor=#f8cecc;strokeColor=#b85450;" parent="1" vertex="1">
          <mxGeometry x="370" y="400" width="180" height="70" as="geometry" />
        </mxCell>
        <mxCell id="7Lpbf4hjDQmTumKoWNzC-8" value="" style="endArrow=classic;html=1;rounded=0;exitX=0.5;exitY=1;exitDx=0;exitDy=0;" parent="1" edge="1">
          <mxGeometry width="50" height="50" relative="1" as="geometry">
            <mxPoint x="459.5" y="360" as="sourcePoint" />
            <mxPoint x="460" y="400" as="targetPoint" />
          </mxGeometry>
        </mxCell>
        <mxCell id="7Lpbf4hjDQmTumKoWNzC-9" value="" style="endArrow=classic;html=1;rounded=0;exitX=0.5;exitY=1;exitDx=0;exitDy=0;" parent="1" edge="1">
          <mxGeometry width="50" height="50" relative="1" as="geometry">
            <mxPoint x="459.5" y="470" as="sourcePoint" />
            <mxPoint x="460" y="510" as="targetPoint" />
            <Array as="points">
              <mxPoint x="460" y="510" />
            </Array>
          </mxGeometry>
        </mxCell>
        <mxCell id="7Lpbf4hjDQmTumKoWNzC-11" value="" style="edgeStyle=orthogonalEdgeStyle;rounded=0;orthogonalLoop=1;jettySize=auto;html=1;" parent="1" source="7Lpbf4hjDQmTumKoWNzC-10" target="7Lpbf4hjDQmTumKoWNzC-7" edge="1">
          <mxGeometry relative="1" as="geometry" />
        </mxCell>
        <mxCell id="7Lpbf4hjDQmTumKoWNzC-10" value="本地决策模块" style="shape=hexagon;perimeter=hexagonPerimeter2;whiteSpace=wrap;html=1;fixedSize=1;fillColor=#dae8fc;strokeColor=#6c8ebf;" parent="1" vertex="1">
          <mxGeometry x="140" y="395" width="120" height="80" as="geometry" />
        </mxCell>
        <mxCell id="7Lpbf4hjDQmTumKoWNzC-12" value="获取决策档位" style="text;html=1;align=center;verticalAlign=middle;resizable=0;points=[];autosize=1;strokeColor=none;fillColor=none;" parent="1" vertex="1">
          <mxGeometry x="260" y="408" width="100" height="30" as="geometry" />
        </mxCell>
        <mxCell id="0efaH-HFPYKLyXuHY3B8-6" value="" style="edgeStyle=orthogonalEdgeStyle;rounded=0;orthogonalLoop=1;jettySize=auto;html=1;" edge="1" parent="1" source="0efaH-HFPYKLyXuHY3B8-5" target="7Lpbf4hjDQmTumKoWNzC-10">
          <mxGeometry relative="1" as="geometry" />
        </mxCell>
        <mxCell id="0efaH-HFPYKLyXuHY3B8-7" value="注册回调函数" style="edgeLabel;html=1;align=center;verticalAlign=middle;resizable=0;points=[];" vertex="1" connectable="0" parent="0efaH-HFPYKLyXuHY3B8-6">
          <mxGeometry x="-0.1765" y="-2" relative="1" as="geometry">
            <mxPoint as="offset" />
          </mxGeometry>
        </mxCell>
        <mxCell id="0efaH-HFPYKLyXuHY3B8-5" value="自定义档位计算逻辑" style="ellipse;whiteSpace=wrap;html=1;fillColor=#fff2cc;strokeColor=#d6b656;" vertex="1" parent="1">
          <mxGeometry x="140" y="230" width="120" height="80" as="geometry" />
        </mxCell>
      </root>
    </mxGraphModel>
  </diagram>
</mxfile>
